<?xml version="1.0" encoding="utf-8"?>
<!-- Generator: Adobe Illustrator 24.3.0, SVG Export Plug-In . SVG Version: 6.00 Build 0)  -->
<svg version="1.1" id="Capa_1" xmlns="http://www.w3.org/2000/svg" xmlns:xlink="http://www.w3.org/1999/xlink" x="0px" y="0px"
	 viewBox="0 0 1133.9 381.9" style="enable-background:new 0 0 1133.9 381.9;" xml:space="preserve">
<style type="text/css">
	.st0{fill:#99E159;}
</style>
<g>
	<path d="M180.6,192.4c-0.3-1.2-0.7-2.4-1.3-3.9l-3.8-8.2c0-0.1-0.1-0.2-0.2-0.3c-2-3.4-4.3-6.4-6.9-9.3c-3.4-3.4-7.1-6.4-11.5-9.2
		c-4.6-2.7-8.9-4.8-13.2-6.3c-4.5-1.7-9.3-3.4-14.4-4.6l-33.1-8.7c-1.1-0.2-2-0.5-3-1.1c-1.6-0.8-3.3-1.4-5-1.7
		c-5.8-1.6-10.3-3.9-14-6.9c-3.5-2.6-5.2-6-5.2-10.6c0-3.7,0.9-6.7,2.9-9.3c1.6-2.3,4-4.3,7.5-6.4c3.2-1.7,6.9-3,10.9-3.9
		c4.9-0.8,8.8-1.1,12.4-1.1c12,0,21.3,2.2,28.4,6.7c1.9,1.2,3.7,2.6,5.5,4.3c1.2,1.1,3,1.2,4.4,0.3c1.3-1,1.8-2.7,1.1-4.2l-15-32.4
		c-0.5-1-1.4-1.7-2.5-1.9c-6.4-1.2-13.2-1.9-20.3-1.9c-7.6,0-15.1,0.8-22.7,2.4c-7.6,1.6-15,4.4-22,8.3c-7,3.9-12.7,9-16.8,15.1
		c-4.7,6.5-7,14.1-7,23.3c0,7.8,1.7,14.5,4.9,19.8c3.4,5.7,7.4,10.4,12.3,14.3c4.9,3.9,10.5,7.1,16.7,9.6c5.2,2.3,10.8,4.2,18.1,6.3
		l33.6,8.9c3.8,0.9,7.3,2.1,10.4,3.3c3.9,1.8,6.5,3.3,8.7,4.9c2.3,1.9,4.4,4.2,5.8,6.3c1.4,2.4,2.1,5.1,2.1,8.1
		c0,4.4-1.1,8.1-3.3,11.1c-2.2,3-5.2,5.5-9.1,7.4c-4.1,2.1-8.6,3.6-13.1,4.4c-4.9,0.9-9.8,1.4-14.6,1.4c-26.8,0-42.4-11.9-47.7-36.4
		L60,188c-0.2-0.9-0.8-1.7-1.5-2.2c-0.8-0.5-1.7-0.6-2.6-0.4l-25.3,6.1c-1.8,0.4-3,2.3-2.5,4.1l0.5,2.2c4.6,19,13.9,33.6,27.8,43.2
		c13.8,9.6,31,14.4,51.2,14.4c8.8,0,17.2-0.8,25.6-2.4c9.5-2.2,17.3-5.1,23.7-8.8c7.2-4.2,13.2-9.7,17.9-16.4c0,0,0,0,0,0
		c4.8-6.9,7.2-15.3,7.2-25.9C181.9,198.9,181.5,195.9,180.6,192.4z"/>
	<path d="M312.9,118.1c-0.6-1-1.7-1.6-2.9-1.6h-26.2c-1.3,0-2.6,0.8-3.1,2L238,211.9l-39.1-93.1c-0.5-1.3-1.8-2.1-3.2-2.1h-25.8
		c-1.1,0-2.2,0.6-2.9,1.5c-0.6,1-0.7,2.2-0.3,3.2l64,150.6c2.6,6.3,5,11.2,7.5,15.3c2.9,4.4,6.2,8.2,10,11.2
		c3.9,2.9,8.5,5.1,13.7,6.7c5.5,1.3,11.7,2,18.4,2h1.6c0.4,0,0.7-0.1,1.1-0.2c0.2-0.1,0.2-0.1,0.8-0.1c0.1,0,0.3,0,0.4,0l2.1-0.2
		c1.7-0.2,3-1.7,3-3.4v-22.3c0-1-0.4-1.9-1.1-2.5c-0.7-0.6-1.7-1-2.6-0.9l-2.6,0.2c-0.1,0-0.2,0-0.4,0.1c-0.9,0.2-2.1,0.4-3.3,0.4
		h-3.7c-2.5,0-4.3-0.2-5.4-0.7c-1.1-0.5-2.4-1.3-3.6-2.3c-0.9-0.9-2-2.4-3-3.8c-0.4-0.8-0.8-1.6-1.2-2.5c-0.5-1.1-1.1-2.3-1.6-3.4
		c-0.8-1.8-1.8-3.8-2.7-5.3c-1-2-1.6-3.7-1.8-4.5c-0.2-1.2-0.7-2.2-1-3.2l-0.3-0.8c-0.3-0.7-0.6-1.5-1-2.3l59.3-128.3
		C313.6,120.3,313.5,119,312.9,118.1z"/>
	<path d="M772.4,76.1h-24.9c-1.9,0-3.4,1.5-3.4,3.4v168.9c0,1.9,1.5,3.4,3.4,3.4h24.9c1.9,0,3.4-1.5,3.4-3.4V79.5
		C775.9,77.6,774.3,76.1,772.4,76.1z"/>
	<path d="M1026.6,117l-1.4-0.5c-1.8-0.6-4.6-1.4-7.7-2c-2.7-0.5-5.5-0.7-8.3-0.7c-9.6,0-18.1,1.3-26.2,3.9c-6,1.9-11.5,4.9-16.3,8.8
		v-6c0-1.9-1.5-3.4-3.4-3.4h-22.8c-1.9,0-3.4,1.5-3.4,3.4v127.9c0,1.9,1.5,3.4,3.4,3.4h25.2c1.9,0,3.4-1.5,3.4-3.4v-61.7
		c0-7.3,0.5-13.4,1.6-18.7c1.2-5.8,3-10.3,5.6-13.9c2.5-3.7,6-6.5,10.6-8.5c5-2.2,11.2-3.2,19.1-3.2c4.8,0,10,0.8,15.9,2.5l2.8,0.7
		c1,0.3,2.1,0,2.9-0.6c0.8-0.6,1.3-1.6,1.3-2.7v-21.9C1029,118.8,1028,117.5,1026.6,117z"/>
	<path d="M428.4,158.4c-1.9-8.4-5.3-16.1-10.2-23c-5.1-6.6-11.6-11.8-19.5-15.5c-8.3-3.8-18.4-5.7-30.1-5.7c-3.5,0-7.1,0-10.7,0.2
		c-3.7,0.3-7.4,1-10.9,1.7c-4,0.8-7.8,2.1-11,3.8c-2.7,1.5-5.5,3.6-8.4,6.4c-0.3,0.3-0.6,0.6-0.7,1l-25.9,56
		c-0.2,0.5-0.3,0.9-0.3,1.4v63.5c0,1.9,1.5,3.4,3.4,3.4h25.2c1.9,0,3.4-1.5,3.4-3.4V183c0-5.4,0.6-10.8,1.8-16.3
		c1-4.7,2.8-8.7,5.6-12.3c2.8-3.4,6.2-6.1,10.2-8.1c4.3-1.9,9.8-3,15.8-3c10.5,0,18.5,2.6,23.6,7.8c5.4,5.6,8.4,13.3,9.1,23.2
		c0.2,1.9,0.2,3.6,0.2,5.4v68.7c0,1.9,1.5,3.4,3.4,3.4h25.4c1.9,0,3.4-1.5,3.4-3.4v-62.9C431.3,175.9,430.3,166.8,428.4,158.4z"/>
	<path d="M581.2,117.1h-22.6c-1.9,0-3.4,1.5-3.4,3.4v2.2c-5.2-3.2-10.9-5.4-17.2-6.8c-7.8-1.4-16-2.2-24.1-2.2
		c-11.1,0-20.6,1.8-29.1,5.4c-8.5,3.6-15.7,8.8-21.5,15.3c-5.8,6.6-10.2,14.1-13,22.4c-2.9,8.5-4.4,17.7-4.4,27.4
		c0,9.7,1.6,18.8,4.6,27c3,8.7,7.5,16.3,13.3,22.6c6,6.8,13.1,11.9,21.6,15.5c8.7,4,18.1,5.9,28.9,5.9c8.4,0,16-1,23.4-3.2
		c5.4-1.7,10.3-4.1,14.9-7.1v5.5c0,1.6,0,3-0.2,4.6c-0.4,4.7-1.6,9-3.4,12.1c-2.1,3.1-4.8,5.8-7.8,7.9c-3.2,2-7,3.6-11.4,4.7
		c-4.4,0.9-9.3,1.3-14.5,1.3c-1.9,0-3.4,1.5-3.4,3.4v22.4c0,1.9,1.5,3.4,3.4,3.4c7,0,13.4-0.6,19.5-1.7c5.9-1.1,12-3.1,18.7-6.2
		c6-3.1,11.2-6.8,15.7-11c4.6-4.3,8.2-9.7,11.1-16.7c1.7-4.6,2.9-9.4,3.7-14.6c0.5-4.7,0.7-9.6,0.7-14.3V120.5
		C584.6,118.6,583,117.1,581.2,117.1z M555.1,184.4c0,6.5-0.7,12.2-2.2,17.2c-1.5,5.2-3.9,9.6-7,13.2c-3.3,3.9-7.1,6.8-11.9,8.9
		c-4.8,2.3-10.5,3.4-17.4,3.4c-6.8,0-12.3-1.1-17-3.4c-4.6-2.1-8.4-5-11.4-8.9c-3-3.6-5.2-8-6.8-13.4c-1.6-5.5-2.4-11.2-2.4-17
		c0-6.5,0.7-12.2,2.2-17.4c1.6-5.5,3.8-9.8,6.7-13.1c3.4-3.9,7.3-6.7,11.9-8.7c4.7-2.1,10.4-3.2,17.2-3.2c6.7,0,12.6,1.1,17.5,3.2
		c4.5,2,8.3,4.9,11.6,8.6c3,3.6,5.2,8,6.8,13.4C554.4,172.2,555.1,177.8,555.1,184.4z"/>
	<path d="M726.1,117.2H701c-1.9,0-3.4,1.5-3.4,3.4v56.3c0,6.9-0.3,13-0.9,18.5c-0.7,6.2-2,11.3-4.1,15.5c-2.4,4.5-5.5,8-9.7,10.5
		c-4.4,2.7-10.4,4.1-17.7,4.1c-6.9,0-12.3-1.1-16.7-3.4c-4.2-2-7.5-4.8-10.2-8.5c-2.5-3.3-4.3-7.5-5.4-13c-1.2-5.8-1.8-11.3-1.8-17
		v-63c0-1.9-1.5-3.4-3.4-3.4h-25.1c-1.9,0-3.4,1.5-3.4,3.4v63c0,4.9,0.2,9.7,0.7,14.6c0.3,5.4,1.3,10.4,2.4,15.1
		c1.6,6.5,4.5,12.6,8.4,18.1c3.5,4.9,8.1,9.2,13.7,13c4.7,3.1,10.4,5.7,17.5,7.9c6.1,1.6,12.6,2.4,20,2.4c8,0,15.9-1.2,23.3-3.6
		c5.1-1.5,10.1-3.8,14.7-7v4.2c0,1.9,1.5,3.4,3.4,3.4h22.8c1.9,0,3.4-1.5,3.4-3.4V120.6C729.5,118.7,728,117.2,726.1,117.2z"/>
	<path d="M917.3,146.1C917.3,146,917.3,146,917.3,146.1c-3.9-7.5-8.7-13.4-14.7-18c-6.2-4.7-13.4-8.3-21.6-10.8
		c-8.2-2.2-16.9-3.4-25.8-3.4c-6,0-12.3,0.6-20,1.9c-7.4,1.5-14,3.8-19.5,6.8c-6.2,3.2-11.3,7.7-15.1,13.3
		c-4.1,5.7-6.2,12.7-6.2,20.8v2.1c0,0.9,0.4,1.8,1,2.4c0.7,0.6,1.6,1.1,2.4,1l23.9-0.2c1.9,0,3.4-1.6,3.4-3.4
		c0-0.4,0.2-9.5,10.5-13.4c12.1-4.7,29.8-3.8,41.2,1.9c9.4,4.8,11.8,13,12.4,17.4c-10.1,1.3-40.7,5.1-44,5.7
		c-5.2,0.7-11,1.9-17.2,3.6c-6.6,1.8-12.4,4-17.4,6.8c-5.7,3-10.3,6.8-14.1,11.6c-4,5.1-6.1,11.4-6.1,18.6c0,6.9,1.6,13.1,4.6,18.4
		c3.1,5.7,7.2,10.4,12,14c4.5,3.6,10.1,6.6,16.5,8.9c6,2.2,12.2,3.2,18.8,3.2c4.1,0,8.2-0.3,12.6-1c5-0.7,10-2,14.8-3.6
		c4.7-1.3,9.4-3.2,14.5-5.5c2.2-1,4.3-2.2,6.3-3.5v7.2c0,1.9,1.5,3.4,3.4,3.4h25.1c1.9,0,3.4-1.5,3.4-3.4v-77.4
		C922.5,161.8,920.7,153.2,917.3,146.1z M890.6,190c0.2,5.8-0.8,11.2-3.1,15.9c-2.3,4.8-5.4,9-9.3,12.3c-3.9,3.4-8.4,6.1-13.5,8
		c-5.1,2-10.4,3.1-15.7,3.3c-8.3,0.3-15.2-1.2-20.4-4.6c-5.2-3.4-7.2-6.5-7.4-11.5c-0.2-4.4,1.6-8.2,5.6-11.4
		c2.3-1.9,5.5-3.3,9.7-4.3c0.1,0,0.1,0,0.2-0.1c0.1,0,0.1,0,0.1,0c0.6-0.1,1.1-0.3,1.7-0.4c1.5-0.4,3-0.8,4.7-0.9l47.2-7.4
		L890.6,190z"/>
	<path class="st0" d="M1100.3,94c-6.8-15.8-25.1-23.2-41-16.4l2.8,6.5c-15.8,6.8-23.2,25.1-16.4,41c6.8,15.8,25.1,23.2,41,16.4
		l-2.8-6.5C1099.8,128.2,1107.1,109.9,1100.3,94z"/>
</g>
</svg>
